<svg xmlns="http://www.w3.org/2000/svg" version="1.1" xmlns:xlink="http://www.w3.org/1999/xlink"
    xmlns:svgjs="http://svgjs.dev/svgjs" viewBox="0 0 800 800">
    <circle r="11.5" cx="49" cy="77" stroke-width="2" stroke="hsl(312, 50%, 50%)" fill="none"></circle>
    <circle r="11.5" cx="665" cy="653" stroke-width="2" stroke="hsl(303, 50%, 50%)" fill="none"></circle>
    <circle r="6.5" cx="173" cy="528" stroke-width="2" stroke="hsl(193, 50%, 50%)" fill="none"></circle>
    <circle r="5" cx="290" cy="348" stroke-width="2" stroke="hsl(73, 50%, 50%)" fill="none"></circle>
    <circle r="9.5" cx="458" cy="747" fill="hsl(131, 50%, 50%)"></circle>
    <circle r="9.5" cx="612" cy="36" fill="hsl(249, 50%, 50%)"></circle>
    <circle r="7.5" cx="528" cy="202" stroke-width="2" stroke="hsl(218, 50%, 50%)" fill="none"></circle>
    <circle r="8" cx="94" cy="337" stroke-width="2" stroke="hsl(268, 50%, 50%)" fill="none"></circle>
    <circle r="4" cx="334" cy="159" stroke-width="2" stroke="hsl(99, 50%, 50%)" fill="none"></circle>
    <circle r="7" cx="427" cy="435" fill="hsl(111, 50%, 50%)"></circle>
    <circle r="5" cx="729" cy="51" fill="hsl(309, 50%, 50%)"></circle>
    <circle r="8" cx="497" cy="614" fill="hsl(171, 50%, 50%)"></circle>
    <circle r="8.5" cx="757" cy="427" fill="hsl(215, 50%, 50%)"></circle>
    <circle r="9.5" cx="477" cy="160" stroke-width="2" stroke="hsl(182, 50%, 50%)" fill="none"></circle>
    <circle r="11" cx="761" cy="58" fill="hsl(295, 50%, 50%)"></circle>
    <circle r="7.5" cx="216" cy="359" fill="hsl(129, 50%, 50%)"></circle>
    <circle r="7.5" cx="265" cy="635" stroke-width="2" stroke="hsl(83, 50%, 50%)" fill="none"></circle>
    <circle r="6.5" cx="303" cy="54" fill="hsl(265, 50%, 50%)"></circle>
    <circle r="5.5" cx="431" cy="132" stroke-width="2" stroke="hsl(175, 50%, 50%)" fill="none"></circle>
    <circle r="6" cx="581" cy="149" stroke-width="2" stroke="hsl(296, 50%, 50%)" fill="none"></circle>
    <circle r="3.5" cx="286" cy="255" fill="hsl(77, 50%, 50%)"></circle>
    <circle r="5" cx="296" cy="386" stroke-width="2" stroke="hsl(73, 50%, 50%)" fill="none"></circle>
    <circle r="9.5" cx="61" cy="21" fill="hsl(263, 50%, 50%)"></circle>
    <circle r="6.5" cx="297" cy="137" fill="hsl(133, 50%, 50%)"></circle>
    <circle r="6" cx="223" cy="506" stroke-width="2" stroke="hsl(129, 50%, 50%)" fill="none"></circle>
    <circle r="9.5" cx="42" cy="504" stroke-width="2" stroke="hsl(277, 50%, 50%)" fill="none"></circle>
    <circle r="9" cx="713" cy="503" fill="hsl(263, 50%, 50%)"></circle>
    <circle r="11" cx="224" cy="75" fill="hsl(269, 50%, 50%)"></circle>
    <circle r="11" cx="360" cy="62" fill="hsl(279, 50%, 50%)"></circle>
    <circle r="8" cx="710" cy="27" stroke-width="2" stroke="hsl(289, 50%, 50%)" fill="none"></circle>
    <circle r="9.5" cx="781" cy="587" stroke-width="2" stroke="hsl(180, 50%, 50%)" fill="none"></circle>
    <circle r="7" cx="512" cy="150" fill="hsl(208, 50%, 50%)"></circle>
    <circle r="6.5" cx="328" cy="125" stroke-width="2" stroke="hsl(134, 50%, 50%)" fill="none"></circle>
    <circle r="4.5" cx="194" cy="307" fill="hsl(160, 50%, 50%)"></circle>
    <circle r="6.5" cx="305" cy="172" stroke-width="2" stroke="hsl(84, 50%, 50%)" fill="none"></circle>
    <circle r="7" cx="546" cy="150" fill="hsl(252, 50%, 50%)"></circle>
    <circle r="10" cx="584" cy="775" fill="hsl(277, 50%, 50%)"></circle>
    <circle r="5.5" cx="376" cy="239" stroke-width="2" stroke="hsl(84, 50%, 50%)" fill="none"></circle>
    <circle r="4" cx="301" cy="535" fill="hsl(70, 50%, 50%)"></circle>
    <circle r="11" cx="621" cy="160" stroke-width="2" stroke="hsl(323, 50%, 50%)" fill="none"></circle>
    <circle r="8.5" cx="497" cy="125" stroke-width="2" stroke="hsl(214, 50%, 50%)" fill="none"></circle>
    <circle r="4.5" cx="266" cy="126" stroke-width="2" stroke="hsl(143, 50%, 50%)" fill="none"></circle>
    <circle r="6.5" cx="604" cy="723" fill="hsl(297, 50%, 50%)"></circle>
    <circle r="9.5" cx="16" cy="297" stroke-width="2" stroke="hsl(269, 50%, 50%)" fill="none"></circle>
    <circle r="5" cx="235" cy="316" stroke-width="2" stroke="hsl(115, 50%, 50%)" fill="none"></circle>
    <circle r="4.5" cx="463" cy="534" stroke-width="2" stroke="hsl(143, 50%, 50%)" fill="none"></circle>
    <circle r="8" cx="20" cy="218" stroke-width="2" stroke="hsl(269, 50%, 50%)" fill="none"></circle>
    <circle r="12.5" cx="58" cy="613" stroke-width="2" stroke="hsl(278, 50%, 50%)" fill="none"></circle>
    <circle r="14.5" cx="553" cy="279" stroke-width="2" stroke="hsl(250, 50%, 50%)" fill="none"></circle>
    <circle r="8.5" cx="380" cy="33" stroke-width="2" stroke="hsl(315, 50%, 50%)" fill="none"></circle>
    <circle r="12" cx="743" cy="651" fill="hsl(232, 50%, 50%)"></circle>
    <circle r="8.5" cx="639" cy="211" stroke-width="2" stroke="hsl(309, 50%, 50%)" fill="none"></circle>
    <circle r="5.5" cx="789" cy="248" stroke-width="2" stroke="hsl(162, 50%, 50%)" fill="none"></circle>
    <circle r="10" cx="739" cy="484" fill="hsl(232, 50%, 50%)"></circle>
    <circle r="8.5" cx="13" cy="100" stroke-width="2" stroke="hsl(295, 50%, 50%)" fill="none"></circle>
    <circle r="4" cx="344" cy="703" stroke-width="2" stroke="hsl(72, 50%, 50%)" fill="none"></circle>
    <circle r="8.5" cx="781" cy="486" fill="hsl(180, 50%, 50%)"></circle>
    <circle r="14" cx="678" cy="141" fill="hsl(336, 50%, 50%)"></circle>
    <circle r="9.5" cx="259" cy="76" fill="hsl(229, 50%, 50%)"></circle>
    <circle r="6.5" cx="16" cy="36" stroke-width="2" stroke="hsl(232, 50%, 50%)" fill="none"></circle>
    <circle r="5.5" cx="196" cy="143" stroke-width="2" stroke="hsl(211, 50%, 50%)" fill="none"></circle>
    <circle r="7.5" cx="374" cy="274" stroke-width="2" stroke="hsl(79, 50%, 50%)" fill="none"></circle>
    <circle r="5" cx="554" cy="505" fill="hsl(250, 50%, 50%)"></circle>
    <circle r="10" cx="16" cy="64" stroke-width="2" stroke="hsl(276, 50%, 50%)" fill="none"></circle>
    <circle r="8.5" cx="573" cy="477" stroke-width="2" stroke="hsl(264, 50%, 50%)" fill="none"></circle>
    <circle r="8" cx="460" cy="355" fill="hsl(131, 50%, 50%)"></circle>
    <circle r="9.5" cx="566" cy="44" stroke-width="2" stroke="hsl(248, 50%, 50%)" fill="none"></circle>
    <circle r="7.5" cx="154" cy="486" stroke-width="2" stroke="hsl(209, 50%, 50%)" fill="none"></circle>
    <circle r="11" cx="718" cy="120" stroke-width="2" stroke="hsl(327, 50%, 50%)" fill="none"></circle>
    <circle r="9.5" cx="511" cy="279" stroke-width="2" stroke="hsl(186, 50%, 50%)" fill="none"></circle>
    <circle r="7" cx="638" cy="491" stroke-width="2" stroke="hsl(309, 50%, 50%)" fill="none"></circle>
    <circle r="5" cx="221" cy="536" stroke-width="2" stroke="hsl(129, 50%, 50%)" fill="none"></circle>
    <circle r="9.5" cx="532" cy="76" fill="hsl(257, 50%, 50%)"></circle>
    <circle r="8.5" cx="516" cy="573" fill="hsl(202, 50%, 50%)"></circle>
    <circle r="10" cx="612" cy="234" stroke-width="2" stroke="hsl(297, 50%, 50%)" fill="none"></circle>
    <circle r="7.5" cx="145" cy="512" stroke-width="2" stroke="hsl(224, 50%, 50%)" fill="none"></circle>
    <circle r="10" cx="780" cy="631" stroke-width="2" stroke="hsl(180, 50%, 50%)" fill="none"></circle>
    <circle r="9.5" cx="777" cy="723" fill="hsl(180, 50%, 50%)"></circle>
    <circle r="9" cx="648" cy="520" stroke-width="2" stroke="hsl(309, 50%, 50%)" fill="none"></circle>
    <circle r="4" cx="276" cy="148" stroke-width="2" stroke="hsl(119, 50%, 50%)" fill="none"></circle>
    <circle r="5" cx="562" cy="520" fill="hsl(250, 50%, 50%)"></circle>
    <circle r="10.5" cx="530" cy="669" fill="hsl(218, 50%, 50%)"></circle>
    <circle r="5" cx="484" cy="97" fill="hsl(237, 50%, 50%)"></circle>
    <circle r="9.5" cx="86" cy="586" stroke-width="2" stroke="hsl(274, 50%, 50%)" fill="none"></circle>
    <circle r="8" cx="770" cy="455" stroke-width="2" stroke="hsl(197, 50%, 50%)" fill="none"></circle>
    <circle r="7.5" cx="669" cy="258" fill="hsl(303, 50%, 50%)"></circle>
    <circle r="8" cx="530" cy="112" stroke-width="2" stroke="hsl(256, 50%, 50%)" fill="none"></circle>
    <circle r="6.5" cx="197" cy="564" stroke-width="2" stroke="hsl(160, 50%, 50%)" fill="none"></circle>
    <circle r="6" cx="667" cy="10" stroke-width="2" stroke="hsl(244, 50%, 50%)" fill="none"></circle>
    <circle r="5.5" cx="433" cy="567" fill="hsl(111, 50%, 50%)"></circle>
    <circle r="8" cx="760" cy="18" fill="hsl(264, 50%, 50%)"></circle>
    <circle r="10.5" cx="647" cy="129" fill="hsl(339, 50%, 50%)"></circle>
    <circle r="7.5" cx="560" cy="199" fill="hsl(250, 50%, 50%)"></circle>
    <circle r="6" cx="326" cy="480" stroke-width="2" stroke="hsl(70, 50%, 50%)" fill="none"></circle>
    <circle r="12" cx="566" cy="655" fill="hsl(264, 50%, 50%)"></circle>
    <circle r="7" cx="348" cy="573" fill="hsl(72, 50%, 50%)"></circle>
    <circle r="3.5" cx="266" cy="187" fill="hsl(89, 50%, 50%)"></circle>
    <circle r="5" cx="243" cy="153" fill="hsl(132, 50%, 50%)"></circle>
    <circle r="6" cx="493" cy="189" stroke-width="2" stroke="hsl(171, 50%, 50%)" fill="none"></circle>
    <circle r="6" cx="473" cy="787" fill="hsl(143, 50%, 50%)"></circle>
    <circle r="4" cx="283" cy="602" fill="hsl(77, 50%, 50%)"></circle>
    <circle r="6.5" cx="402" cy="564" stroke-width="2" stroke="hsl(95, 50%, 50%)" fill="none"></circle>
    <circle r="10.5" cx="583" cy="174" stroke-width="2" stroke="hsl(289, 50%, 50%)" fill="none"></circle>
    <circle r="5.5" cx="187" cy="282" stroke-width="2" stroke="hsl(177, 50%, 50%)" fill="none"></circle>
    <circle r="11" cx="546" cy="781" fill="hsl(234, 50%, 50%)"></circle>
    <circle r="10.5" cx="667" cy="329" stroke-width="2" stroke="hsl(303, 50%, 50%)" fill="none"></circle>
    <circle r="8" cx="168" cy="312" stroke-width="2" stroke="hsl(193, 50%, 50%)" fill="none"></circle>
    <circle r="8.5" cx="613" cy="616" stroke-width="2" stroke="hsl(303, 50%, 50%)" fill="none"></circle>
    <circle r="7" cx="467" cy="286" stroke-width="2" stroke="hsl(143, 50%, 50%)" fill="none"></circle>
    <circle r="8.5" cx="476" cy="413" fill="hsl(157, 50%, 50%)"></circle>
    <circle r="7.5" cx="366" cy="401" fill="hsl(79, 50%, 50%)"></circle>
    <circle r="5" cx="358" cy="467" stroke-width="2" stroke="hsl(75, 50%, 50%)" fill="none"></circle>
    <circle r="5" cx="221" cy="609" fill="hsl(129, 50%, 50%)"></circle>
    <circle r="11" cx="733" cy="227" stroke-width="2" stroke="hsl(248, 50%, 50%)" fill="none"></circle>
    <circle r="9" cx="591" cy="572" stroke-width="2" stroke="hsl(288, 50%, 50%)" fill="none"></circle>
    <circle r="11" cx="52" cy="693" stroke-width="2" stroke="hsl(278, 50%, 50%)" fill="none"></circle>
    <circle r="12" cx="616" cy="121" stroke-width="2" stroke="hsl(326, 50%, 50%)" fill="none"></circle>
    <circle r="9.5" cx="108" cy="668" stroke-width="2" stroke="hsl(260, 50%, 50%)" fill="none"></circle>
    <circle r="6.5" cx="406" cy="185" fill="hsl(103, 50%, 50%)"></circle>
    <circle r="7" cx="199" cy="472" fill="hsl(160, 50%, 50%)"></circle>
    <circle r="7.5" cx="649" cy="433" fill="hsl(309, 50%, 50%)"></circle>
    <circle r="10" cx="155" cy="181" stroke-width="2" stroke="hsl(223, 50%, 50%)" fill="none"></circle>
    <circle r="14" cx="23" cy="641" fill="hsl(269, 50%, 50%)"></circle>
    <circle r="7.5" cx="671" cy="234" stroke-width="2" stroke="hsl(303, 50%, 50%)" fill="none"></circle>
    <circle r="6" cx="239" cy="458" stroke-width="2" stroke="hsl(103, 50%, 50%)" fill="none"></circle>
    <circle r="7" cx="42" cy="39" stroke-width="2" stroke="hsl(279, 50%, 50%)" fill="none"></circle>
    <circle r="11.5" cx="46" cy="575" stroke-width="2" stroke="hsl(277, 50%, 50%)" fill="none"></circle>
    <circle r="4.5" cx="594" cy="756" fill="hsl(288, 50%, 50%)"></circle>
    <circle r="9" cx="162" cy="784" fill="hsl(209, 50%, 50%)"></circle>
    <circle r="7" cx="656" cy="73" stroke-width="2" stroke="hsl(318, 50%, 50%)" fill="none"></circle>
    <circle r="7.5" cx="299" cy="774" stroke-width="2" stroke="hsl(73, 50%, 50%)" fill="none"></circle>
    <circle r="13" cx="21" cy="541" stroke-width="2" stroke="hsl(269, 50%, 50%)" fill="none"></circle>
    <circle r="9" cx="589" cy="108" fill="hsl(305, 50%, 50%)"></circle>
    <circle r="6" cx="735" cy="35" fill="hsl(286, 50%, 50%)"></circle>
    <circle r="13" cx="699" cy="178" fill="hsl(301, 50%, 50%)"></circle>
    <circle r="5" cx="573" cy="133" fill="hsl(286, 50%, 50%)"></circle>
    <circle r="6" cx="145" cy="460" fill="hsl(224, 50%, 50%)"></circle>
    <circle r="10.5" cx="701" cy="241" stroke-width="2" stroke="hsl(276, 50%, 50%)" fill="none"></circle>
    <circle r="9.5" cx="597" cy="357" stroke-width="2" stroke="hsl(288, 50%, 50%)" fill="none"></circle>
    <circle r="10" cx="50" cy="419" fill="hsl(278, 50%, 50%)"></circle>
    <circle r="8" cx="101" cy="714" stroke-width="2" stroke="hsl(260, 50%, 50%)" fill="none"></circle>
    <circle r="12" cx="63" cy="479" stroke-width="2" stroke="hsl(277, 50%, 50%)" fill="none"></circle>
    <circle r="6" cx="317" cy="735" stroke-width="2" stroke="hsl(69, 50%, 50%)" fill="none"></circle>
    <circle r="7.5" cx="501" cy="86" fill="hsl(249, 50%, 50%)"></circle>
    <circle r="8.5" cx="634" cy="570" fill="hsl(307, 50%, 50%)"></circle>
    <circle r="6" cx="654" cy="558" fill="hsl(307, 50%, 50%)"></circle>
    <circle r="10" cx="160" cy="145" fill="hsl(265, 50%, 50%)"></circle>
    <circle r="4.5" cx="590" cy="742" fill="hsl(288, 50%, 50%)"></circle>
    <circle r="6" cx="213" cy="225" stroke-width="2" stroke="hsl(129, 50%, 50%)" fill="none"></circle>
    <circle r="6" cx="430" cy="212" fill="hsl(111, 50%, 50%)"></circle>
    <circle r="10.5" cx="77" cy="444" stroke-width="2" stroke="hsl(274, 50%, 50%)" fill="none"></circle>
    <circle r="12" cx="504" cy="48" stroke-width="2" stroke="hsl(251, 50%, 50%)" fill="none"></circle>
    <circle r="6.5" cx="113" cy="368" stroke-width="2" stroke="hsl(250, 50%, 50%)" fill="none"></circle>
    <circle r="7" cx="331" cy="285" fill="hsl(70, 50%, 50%)"></circle>
    <circle r="6" cx="438" cy="160" stroke-width="2" stroke="hsl(151, 50%, 50%)" fill="none"></circle>
    <circle r="7" cx="268" cy="746" stroke-width="2" stroke="hsl(83, 50%, 50%)" fill="none"></circle>
    <circle r="9" cx="698" cy="97" stroke-width="2" stroke="hsl(338, 50%, 50%)" fill="none"></circle>
    <circle r="5.5" cx="395" cy="216" fill="hsl(89, 50%, 50%)"></circle>
    <circle r="5.5" cx="248" cy="358" fill="hsl(103, 50%, 50%)"></circle>
    <circle r="9" cx="692" cy="562" fill="hsl(287, 50%, 50%)"></circle>
    <circle r="6" cx="190" cy="111" stroke-width="2" stroke="hsl(254, 50%, 50%)" fill="none"></circle>
    <circle r="8" cx="475" cy="481" stroke-width="2" stroke="hsl(157, 50%, 50%)" fill="none"></circle>
    <circle r="8.5" cx="565" cy="366" stroke-width="2" stroke="hsl(264, 50%, 50%)" fill="none"></circle>
    <circle r="4" cx="791" cy="202" stroke-width="2" stroke="hsl(162, 50%, 50%)" fill="none"></circle>
    <circle r="8.5" cx="472" cy="73" stroke-width="2" stroke="hsl(256, 50%, 50%)" fill="none"></circle>
    <circle r="13.5" cx="131" cy="82" stroke-width="2" stroke="hsl(331, 50%, 50%)" fill="none"></circle>
    <circle r="6" cx="249" cy="210" stroke-width="2" stroke="hsl(103, 50%, 50%)" fill="none"></circle>
    <circle r="4" cx="124" cy="446" stroke-width="2" stroke="hsl(250, 50%, 50%)" fill="none"></circle>
    <circle r="5.5" cx="499" cy="214" stroke-width="2" stroke="hsl(171, 50%, 50%)" fill="none"></circle>
    <circle r="9.5" cx="751" cy="271" fill="hsl(215, 50%, 50%)"></circle>
    <circle r="10.5" cx="122" cy="751" fill="hsl(250, 50%, 50%)"></circle>
    <circle r="13.5" cx="391" cy="100" fill="hsl(224, 50%, 50%)"></circle>
    <circle r="5" cx="354" cy="520" fill="hsl(75, 50%, 50%)"></circle>
    <circle r="5.5" cx="330" cy="384" stroke-width="2" stroke="hsl(70, 50%, 50%)" fill="none"></circle>
    <circle r="10.5" cx="640" cy="183" fill="hsl(319, 50%, 50%)"></circle>
    <circle r="9" cx="776" cy="165" fill="hsl(213, 50%, 50%)"></circle>
    <circle r="12" cx="776" cy="128" fill="hsl(254, 50%, 50%)"></circle>
    <circle r="7" cx="408" cy="300" stroke-width="2" stroke="hsl(95, 50%, 50%)" fill="none"></circle>
    <circle r="12" cx="160" cy="658" fill="hsl(209, 50%, 50%)"></circle>
    <circle r="7.5" cx="284" cy="704" fill="hsl(77, 50%, 50%)"></circle>
    <circle r="4" cx="309" cy="637" stroke-width="2" stroke="hsl(70, 50%, 50%)" fill="none"></circle>
    <circle r="6.5" cx="190" cy="501" fill="hsl(160, 50%, 50%)"></circle>
    <circle r="6.5" cx="640" cy="545" fill="hsl(309, 50%, 50%)"></circle>
    <circle r="6.5" cx="105" cy="447" fill="hsl(260, 50%, 50%)"></circle>
    <circle r="5.5" cx="363" cy="132" stroke-width="2" stroke="hsl(148, 50%, 50%)" fill="none"></circle>
    <circle r="5" cx="20" cy="495" fill="hsl(269, 50%, 50%)"></circle>
    <circle r="4.5" cx="275" cy="489" stroke-width="2" stroke="hsl(83, 50%, 50%)" fill="none"></circle>
    <circle r="5.5" cx="370" cy="195" stroke-width="2" stroke="hsl(79, 50%, 50%)" fill="none"></circle>
    <circle r="8" cx="187" cy="170" fill="hsl(202, 50%, 50%)"></circle>
    <circle r="6.5" cx="91" cy="370" stroke-width="2" stroke="hsl(268, 50%, 50%)" fill="none"></circle>
    <circle r="11" cx="69" cy="549" fill="hsl(277, 50%, 50%)"></circle>
    <circle r="5.5" cx="342" cy="251" stroke-width="2" stroke="hsl(72, 50%, 50%)" fill="none"></circle>
    <circle r="7.5" cx="242" cy="780" stroke-width="2" stroke="hsl(103, 50%, 50%)" fill="none"></circle>
    <circle r="10.5" cx="182" cy="82" stroke-width="2" stroke="hsl(290, 50%, 50%)" fill="none"></circle>
    <circle r="4" cx="417" cy="537" fill="hsl(103, 50%, 50%)"></circle>
    <circle r="8.5" cx="635" cy="653" stroke-width="2" stroke="hsl(307, 50%, 50%)" fill="none"></circle>
    <circle r="6.5" cx="730" cy="11" stroke-width="2" stroke="hsl(255, 50%, 50%)" fill="none"></circle>
    <circle r="14" cx="705" cy="335" stroke-width="2" stroke="hsl(276, 50%, 50%)" fill="none"></circle>
    <circle r="8.5" cx="146" cy="279" fill="hsl(224, 50%, 50%)"></circle>
</svg>