<?xml version="1.0" standalone="no"?>
<!DOCTYPE svg PUBLIC "-//W3C//DTD SVG 20010904//EN"
 "http://www.w3.org/TR/2001/REC-SVG-20010904/DTD/svg10.dtd">
<svg version="1.0" xmlns="http://www.w3.org/2000/svg"
 width="600.000000pt" height="600.000000pt" viewBox="0 0 600.000000 600.000000"
 preserveAspectRatio="xMidYMid meet">

<g transform="translate(0.000000,600.000000) scale(0.100000,-0.100000)"
fill="#000000" stroke="none">
<path d="M104 5971 c-2 -2 -1 -16 1 -30 3 -14 2 -19 -1 -11 -17 40 -88 56
-101 23 -4 -9 -1 -19 5 -21 6 -2 14 -20 18 -40 4 -20 15 -55 25 -77 14 -31 19
-36 24 -22 4 9 5 24 1 32 -3 8 5 32 17 52 19 33 22 35 25 16 3 -23 39 -37 66
-27 21 8 9 26 -14 22 -11 -2 -19 2 -20 7 0 6 8 11 20 13 29 5 25 24 -5 20 -35
-4 -31 16 4 22 42 7 25 25 -22 25 -21 0 -40 -2 -43 -4z m-28 -46 c4 -8 3 -23
0 -32 -6 -15 -8 -15 -16 -3 -13 20 -12 50 0 50 6 0 13 -7 16 -15z"/>
<path d="M342 5973 c-13 -3 -26 -11 -29 -19 -7 -18 27 -144 38 -144 5 0 9 20
9 43 0 32 6 49 20 62 23 21 23 59 0 61 -8 1 -25 -1 -38 -3z m21 -45 c-16 -18
-18 -19 -21 -3 -4 19 16 37 31 28 4 -3 0 -14 -10 -25z"/>
<path d="M506 5972 c-18 -17 0 -142 20 -142 10 0 12 9 7 32 l-6 31 39 -7 c21
-5 51 -10 67 -13 44 -9 31 13 -17 27 -40 11 -44 14 -33 31 6 10 8 21 5 24 -10
10 -76 23 -82 17z m52 -33 c-2 -6 -8 -10 -13 -10 -5 0 -11 4 -13 10 -2 6 4 11
13 11 9 0 15 -5 13 -11z"/>
<path d="M684 5953 c11 -45 19 -143 12 -143 -4 0 -20 7 -36 15 -16 8 -31 11
-34 6 -3 -4 9 -16 27 -26 28 -15 37 -16 57 -5 21 11 22 17 17 69 -5 59 -24
111 -40 111 -5 0 -6 -12 -3 -27z"/>
<path d="M1003 5954 c-32 -25 -33 -25 -33 -5 0 12 -6 21 -13 21 -10 0 -12 -12
-7 -50 7 -56 6 -60 -25 -60 -29 0 -49 43 -35 71 6 11 16 17 22 13 6 -4 9 -1 6
7 -6 19 -39 24 -49 7 -11 -16 -11 -79 -1 -94 4 -6 18 -17 31 -24 18 -9 25 -9
31 0 5 9 9 9 14 1 15 -23 36 -11 36 20 0 31 0 31 25 15 27 -18 45 -21 45 -7 0
5 -14 15 -31 23 l-30 15 30 26 c29 24 40 47 24 47 -5 0 -23 -12 -40 -26z"/>
<path d="M1075 5970 c-11 -5 -15 -9 -10 -9 6 -1 10 -27 10 -58 0 -55 1 -58 26
-61 14 -2 31 4 39 13 17 21 4 32 -20 17 -17 -10 -20 -10 -20 7 0 12 8 21 22
23 12 2 23 9 26 17 3 10 -2 13 -21 9 -34 -7 -46 19 -13 28 38 9 66 -12 66 -49
0 -18 7 -42 16 -53 14 -18 15 -15 10 39 -4 51 -3 57 14 57 13 0 17 -5 14 -15
-4 -10 4 -19 25 -28 24 -10 28 -16 19 -25 -7 -7 -18 -12 -25 -12 -7 0 -13 -4
-13 -10 0 -13 36 -13 61 0 27 15 24 48 -6 62 -19 9 -22 14 -13 25 6 7 8 16 4
20 -10 10 -189 13 -211 3z"/>
<path d="M215 5958 c-8 -21 19 -121 33 -126 10 -3 12 4 9 27 -5 27 -2 34 19
41 28 11 34 54 8 64 -27 10 -64 7 -69 -6z m53 -25 c-4 -22 -22 -20 -26 1 -2
10 3 16 13 16 10 0 15 -7 13 -17z"/>
<path d="M766 5958 c-2 -7 -9 -30 -16 -51 -9 -28 -9 -42 -1 -50 15 -15 26 0
30 46 1 5 9 7 19 5 11 -2 19 -15 22 -37 6 -41 30 -55 30 -18 0 32 -27 97 -41
97 -5 0 -7 5 -4 10 3 6 -3 10 -15 10 -11 0 -22 -6 -24 -12z"/>
<path d="M414 5925 c-26 -26 -32 -73 -12 -93 18 -18 53 -14 73 8 14 16 15 20
4 20 -8 0 -20 -5 -26 -11 -6 -6 -16 -8 -22 -5 -14 9 -14 26 0 26 17 0 39 27
39 48 0 31 -28 35 -56 7z m27 -28 c-16 -16 -26 0 -10 19 9 11 15 12 17 4 2 -6
-1 -17 -7 -23z"/>
<path d="M3404 5458 c-23 -45 -128 -146 -159 -154 -21 -5 -36 4 -87 51 -100
93 -129 99 -312 65 -123 -22 -204 -17 -275 19 -23 12 -46 19 -51 16 -16 -10
-12 -45 8 -73 29 -41 36 -56 26 -49 -17 10 -234 -39 -234 -53 0 -5 -8 -8 -18
-7 -24 1 -206 -107 -260 -155 -15 -13 -35 -27 -45 -31 -9 -3 -32 -30 -51 -60
-71 -111 -178 -173 -303 -176 -18 -1 -33 -6 -33 -12 0 -17 51 -59 80 -66 14
-3 34 -12 45 -19 11 -8 28 -14 39 -14 17 0 14 -6 -18 -39 -45 -46 -142 -101
-179 -101 -28 0 -43 -26 -24 -43 21 -20 74 -47 91 -47 9 0 16 -4 16 -9 0 -5
24 -14 53 -20 49 -10 47 -10 -35 -7 -49 2 -88 0 -88 -4 0 -23 120 -145 151
-155 14 -5 18 -12 13 -23 -20 -47 -37 -130 -30 -155 6 -24 9 -26 26 -17 11 6
26 23 34 38 8 15 28 42 43 59 l29 33 11 -73 c11 -66 43 -178 74 -253 12 -30
11 -32 -35 -74 -96 -89 -135 -235 -97 -367 5 -18 8 -33 5 -33 -7 0 38 -113 60
-152 25 -42 102 -128 116 -128 6 0 10 -4 10 -9 0 -13 63 -48 101 -56 43 -8 99
-33 99 -44 0 -16 -51 -59 -83 -71 -69 -26 -77 -30 -77 -42 0 -14 80 -55 145
-75 l40 -13 -37 6 c-48 6 -56 -10 -21 -44 72 -72 155 -112 190 -94 17 9 18 3
18 -86 0 -83 2 -97 17 -100 11 -2 23 8 33 27 18 36 88 86 105 76 7 -4 -3 -20
-27 -41 -36 -32 -37 -34 -19 -49 18 -14 63 -14 171 -1 17 2 36 -1 43 -6 25
-21 7 -200 -28 -267 -46 -91 -161 -175 -350 -259 -41 -18 -94 -42 -118 -52
-23 -11 -44 -20 -47 -20 -3 0 -19 -7 -35 -15 -16 -8 -33 -16 -37 -16 -5 -1
-17 -6 -28 -12 -11 -6 -24 -10 -28 -9 -4 1 -18 -3 -30 -10 -12 -7 -25 -11 -29
-10 -5 1 -8 -3 -8 -8 0 -5 -3 -9 -7 -8 -18 4 -85 -17 -176 -58 -65 -28 -99
-39 -102 -31 -2 7 -9 65 -16 130 -7 64 -15 117 -19 117 -4 0 -12 43 -19 95
-16 121 -39 186 -80 224 -40 38 -62 45 -114 36 -30 -4 -49 -15 -66 -37 -21
-26 -24 -41 -26 -130 -2 -54 1 -116 6 -136 4 -20 11 -66 14 -102 7 -67 8 -76
19 -170 9 -75 14 -219 9 -241 -6 -20 -33 -14 -33 7 0 7 -8 19 -18 26 -10 7
-31 46 -47 87 -16 41 -35 80 -42 87 -12 11 -19 30 -61 164 -9 30 -19 57 -22
60 -4 3 -14 28 -24 55 -11 28 -22 55 -26 60 -4 6 -10 23 -14 40 -4 16 -11 32
-14 35 -7 5 -27 40 -59 102 -8 15 -24 30 -36 34 -12 4 -25 11 -29 17 -4 6 -35
13 -70 15 -52 3 -71 0 -107 -20 -36 -19 -45 -29 -46 -53 -3 -39 15 -115 26
-115 5 0 9 -9 9 -19 0 -29 40 -127 61 -150 11 -11 19 -26 19 -33 0 -7 8 -27
18 -43 11 -17 24 -54 31 -82 7 -28 18 -54 25 -56 7 -3 16 -20 20 -39 7 -34 47
-139 56 -148 3 -3 11 -21 16 -41 12 -39 5 -68 -26 -101 -11 -12 -20 -31 -20
-42 0 -12 -14 -35 -30 -53 -17 -18 -30 -36 -30 -40 0 -4 -14 -22 -30 -40 -17
-18 -30 -36 -30 -42 0 -5 -8 -12 -18 -15 -11 -4 -25 -18 -32 -31 -7 -14 -17
-25 -22 -25 -4 0 -8 -6 -8 -14 0 -8 -6 -16 -14 -19 -17 -7 -36 -67 -36 -116 0
-35 29 -152 40 -161 3 -3 16 -39 29 -80 13 -41 28 -79 32 -85 5 -5 9 -17 9
-26 0 -9 6 -19 14 -22 8 -3 17 -21 21 -39 4 -18 12 -39 17 -46 6 -7 15 -33 19
-59 5 -26 13 -49 18 -52 9 -7 40 -172 39 -211 -1 -14 0 -71 2 -127 l4 -103 26
0 c26 0 27 2 27 60 1 39 -4 66 -13 75 -8 7 -9 15 -4 17 13 4 16 158 4 166 -5
4 -15 30 -20 57 -22 102 -58 220 -71 233 -7 7 -16 25 -19 40 -4 15 -14 41 -22
57 -9 17 -16 38 -17 48 -1 11 -7 22 -13 26 -26 16 -56 135 -56 223 -1 74 2 90
22 117 12 16 22 35 22 41 0 6 4 9 10 5 5 -3 19 12 32 34 13 22 33 45 45 50 13
6 23 15 23 21 0 17 42 53 49 43 3 -6 16 -13 28 -17 12 -4 30 -17 40 -30 10
-12 23 -23 28 -24 6 -1 11 -10 13 -22 2 -11 7 -20 11 -20 4 0 15 -27 25 -60
10 -33 22 -60 26 -60 5 0 20 -36 35 -80 15 -44 32 -86 39 -93 20 -21 38 -75
32 -95 -4 -11 -19 -28 -34 -38 -15 -9 -31 -23 -35 -31 -4 -7 -21 -13 -37 -13
-24 0 -32 6 -43 33 -8 18 -22 40 -31 49 -9 9 -22 43 -29 75 l-13 58 -57 18
c-31 10 -57 23 -57 28 0 12 -57 12 -65 0 -9 -16 51 -51 98 -57 l45 -7 7 -51
c4 -28 13 -61 21 -73 8 -12 14 -33 14 -45 0 -24 53 -63 71 -52 5 3 9 1 9 -4 0
-10 13 -9 88 10 30 8 50 8 65 0 12 -5 37 -15 55 -22 17 -7 32 -16 32 -20 0
-13 60 -39 76 -33 17 6 17 9 3 34 -10 19 -108 69 -134 69 -7 0 -16 7 -19 16
-7 19 10 54 27 54 18 0 107 84 123 116 8 14 14 45 14 69 0 47 -43 173 -65 189
-14 11 -65 152 -65 180 0 9 -4 16 -10 16 -5 0 -10 10 -10 23 0 35 -43 100 -75
117 -19 9 -58 15 -103 15 -63 0 -72 2 -72 18 0 11 -6 31 -14 45 -7 15 -19 49
-25 77 -7 27 -16 52 -20 55 -4 3 -13 21 -20 40 -7 19 -17 44 -21 55 -5 11 -14
37 -20 58 -6 20 -15 37 -20 37 -5 0 -16 22 -25 50 -9 27 -21 52 -26 55 -5 4
-9 15 -9 25 0 10 -6 23 -13 27 -20 12 -46 92 -53 163 -4 36 -3 62 1 58 4 -4
14 -1 22 7 26 26 123 14 130 -17 3 -10 9 -18 13 -18 17 0 70 -96 92 -164 12
-39 26 -74 31 -77 5 -3 22 -45 38 -93 16 -48 36 -94 44 -103 8 -8 13 -18 10
-23 -3 -5 1 -24 9 -42 8 -18 22 -50 31 -70 9 -21 20 -38 24 -38 5 0 12 -12 15
-26 7 -26 63 -122 68 -116 2 2 11 0 22 -4 11 -4 29 0 46 9 15 9 30 14 33 11
12 -12 19 67 14 158 -6 123 -28 308 -38 308 -6 0 -12 42 -24 181 -5 60 9 117
32 134 29 23 79 18 108 -9 15 -14 26 -28 26 -33 -2 -20 13 -79 21 -84 5 -3 11
-26 14 -50 2 -24 8 -71 14 -104 5 -33 11 -89 14 -125 8 -117 30 -280 37 -280
4 0 10 -35 13 -77 4 -43 8 -100 11 -128 3 -38 2 -46 -6 -32 -6 10 -24 31 -40
48 -16 16 -29 34 -29 40 0 12 -46 30 -85 33 -35 3 -78 -21 -71 -40 3 -7 -2
-15 -10 -18 -8 -3 -14 -13 -14 -21 0 -9 -4 -14 -9 -11 -20 13 -22 -189 -1
-204 3 -3 14 -23 22 -45 9 -22 21 -39 27 -38 6 2 11 -2 11 -8 0 -6 19 -29 42
-50 l42 -38 -22 -68 c-12 -37 -22 -73 -22 -80 0 -6 -6 -18 -14 -26 -22 -22
-25 -87 -3 -87 23 0 38 17 41 43 1 15 6 30 9 34 4 3 7 19 7 34 0 15 7 35 16
43 8 9 18 32 21 51 5 33 8 35 45 35 45 0 48 19 6 31 -37 10 -108 71 -151 129
-57 78 -52 269 7 284 27 7 56 -1 56 -15 0 -5 7 -9 15 -9 9 0 21 -12 27 -27 13
-30 58 -90 58 -77 0 4 13 -12 30 -37 16 -24 68 -82 115 -129 47 -46 85 -92 85
-102 0 -10 5 -18 10 -18 14 0 12 -47 -2 -54 -10 -5 -10 -7 0 -12 16 -7 16 -41
0 -46 -9 -3 -13 -55 -16 -188 -3 -176 -4 -186 -29 -231 -14 -26 -31 -50 -38
-52 -6 -3 -25 -31 -41 -63 -16 -31 -41 -71 -57 -87 -15 -17 -26 -36 -23 -43 3
-7 -2 -18 -11 -26 -13 -10 -15 -27 -10 -98 4 -47 12 -100 18 -118 l11 -32
1704 0 1703 0 -5 33 c-5 31 -16 96 -48 277 -19 107 -44 277 -51 355 -8 77 -32
194 -56 268 -49 155 -145 366 -195 433 -13 17 -24 34 -24 38 0 11 -88 125
-127 165 -18 19 -33 40 -33 48 0 7 -7 13 -15 13 -8 0 -15 7 -15 15 0 14 -12
19 -32 16 -5 0 -8 5 -8 12 0 12 -63 62 -192 152 -32 22 -127 88 -210 147 -84
59 -184 129 -222 155 -129 89 -204 185 -191 243 4 17 2 31 -6 35 -11 7 -9 103
7 271 l6 62 29 -8 c16 -5 41 -5 56 -1 22 6 29 14 31 40 2 18 -1 45 -7 61 l-9
29 72 -1 c108 0 178 43 102 63 -33 9 -53 25 -68 53 -7 15 0 11 24 -11 37 -36
65 -42 75 -16 10 24 -15 130 -44 186 -28 55 -22 66 32 67 17 0 59 13 95 28 49
21 65 33 65 47 0 17 -7 20 -50 21 -27 1 -64 2 -81 3 -16 1 -39 7 -49 15 -17
13 -17 14 16 30 51 25 104 78 192 192 62 81 83 256 48 392 -36 141 -109 220
-226 247 l-50 11 -6 165 c-4 90 -10 176 -14 192 -10 36 -3 34 38 -9 39 -41 60
-39 47 4 -5 15 -15 59 -22 97 l-14 70 51 0 c48 1 115 20 115 34 0 3 -15 17
-33 30 -17 13 -52 53 -77 89 -25 35 -57 78 -71 95 l-26 31 41 34 c79 66 125
162 76 162 -11 0 -20 -4 -20 -9 0 -5 -27 -23 -60 -40 l-61 -30 -57 35 c-31 18
-62 34 -69 34 -7 0 -24 5 -38 12 l-25 11 41 18 c22 10 58 24 80 30 42 13 53
39 16 39 -13 0 -57 12 -97 26 -56 19 -90 25 -144 23 -39 -1 -77 -6 -83 -12 -7
-5 -13 -7 -13 -3 0 3 -11 1 -24 -3 -23 -9 -23 -9 -10 27 17 49 17 58 -2 109
-20 51 -38 54 -60 11z m13 -661 c17 -9 46 -30 64 -46 25 -23 30 -35 25 -54 -8
-35 20 -44 51 -15 23 21 23 21 37 2 8 -10 24 -59 36 -108 17 -71 27 -95 55
-125 19 -20 38 -44 41 -53 3 -10 9 -18 13 -18 10 0 38 -91 46 -150 3 -25 12
-72 20 -105 32 -143 39 -206 37 -365 -1 -91 -8 -214 -16 -275 -8 -60 -12 -113
-10 -117 3 -5 1 -8 -4 -8 -5 0 -14 -30 -21 -66 -18 -98 -38 -151 -89 -234 -25
-41 -48 -77 -52 -80 -3 -3 -23 -29 -44 -59 -54 -77 -97 -125 -142 -161 -113
-90 -157 -114 -279 -154 -99 -32 -245 -37 -352 -10 -62 15 -179 70 -209 98 -7
6 -33 27 -59 46 -26 19 -69 58 -97 87 -28 29 -55 50 -59 47 -5 -3 -9 0 -9 7 0
7 -7 20 -16 30 -8 9 -17 24 -18 33 -1 9 -10 22 -19 28 -9 7 -18 25 -19 41 -1
15 -5 27 -9 27 -6 0 -25 37 -83 162 -55 119 -128 392 -133 493 -1 39 -3 77 -3
85 -1 22 -20 125 -37 205 -21 97 -18 136 16 240 29 91 30 100 16 238 -8 80 0
98 25 52 17 -31 57 -58 76 -51 11 4 12 11 5 23 -5 10 -12 49 -16 86 l-7 68 33
-31 c40 -36 97 -54 153 -47 62 7 67 9 139 55 54 34 76 42 114 42 58 0 70 7 75
42 3 28 3 28 33 12 34 -18 101 -22 117 -6 6 6 34 8 66 5 48 -4 60 -2 79 16 16
15 35 21 67 21 45 0 116 26 116 42 0 4 17 -10 37 -33 20 -22 49 -47 65 -55 52
-27 196 -25 206 4 2 6 -3 12 -11 12 -17 0 -97 86 -97 104 0 8 2 8 8 0 4 -6 21
-19 39 -27z m553 -678 c0 -6 49 -32 62 -33 5 -1 28 -17 52 -36 37 -29 48 -47
65 -100 12 -36 23 -79 25 -96 2 -17 6 -36 10 -42 3 -6 2 -13 -4 -17 -5 -3 -10
-24 -10 -45 0 -39 -6 -56 -62 -177 -28 -59 -76 -116 -149 -176 -24 -19 -43
-27 -64 -25 -33 3 -33 5 -21 98 12 90 16 199 16 395 0 110 3 214 6 232 5 28 9
31 40 30 19 -1 34 -5 34 -8z m-1982 -304 c6 -14 8 -25 3 -25 -16 0 -89 -76
-99 -105 -12 -32 -11 -103 2 -123 4 -7 2 -12 -6 -12 -8 0 -9 -3 -3 -8 6 -4 10
-14 10 -22 0 -8 8 -16 17 -18 15 -3 16 7 13 85 -4 75 -1 94 15 121 19 31 53
45 49 20 -5 -30 14 -108 25 -101 7 4 7 1 -1 -7 -9 -10 -9 -18 -1 -34 6 -11 13
-39 14 -61 3 -34 0 -42 -19 -50 -27 -12 -35 -52 -13 -61 20 -8 21 -34 1 -34
-8 0 -15 -4 -15 -10 0 -12 40 -23 89 -24 45 -1 48 19 6 42 -61 34 -70 69 -17
64 27 -3 31 -1 25 15 -3 10 -15 28 -25 39 -14 16 -16 24 -8 29 7 4 9 18 5 34
-4 14 -11 50 -16 79 -4 30 -11 64 -14 75 -2 12 2 6 11 -13 9 -19 18 -46 20
-60 3 -14 7 -32 11 -40 3 -8 8 -30 10 -49 2 -19 8 -42 13 -51 5 -10 12 -32 15
-50 3 -18 9 -38 13 -44 3 -6 8 -22 10 -35 2 -13 10 -37 18 -53 8 -15 12 -28 8
-28 -4 0 -2 -6 3 -12 21 -27 22 -57 2 -63 -26 -9 -24 -25 4 -25 18 0 26 -10
39 -45 18 -48 17 -50 -10 -36 -9 6 -43 21 -76 35 -84 37 -193 150 -223 231
-46 126 -53 227 -23 307 21 54 83 148 98 148 5 0 14 -11 20 -25z m1671 -931
c-6 -16 -12 -42 -14 -59 -1 -16 -10 -70 -20 -119 -10 -52 -18 -153 -20 -238
-2 -105 -7 -154 -17 -166 -7 -9 -20 -25 -28 -36 -53 -69 -234 -206 -272 -206
-9 0 -21 -6 -27 -14 -20 -24 -102 -29 -162 -12 -30 9 -56 17 -59 17 -16 4 -37
12 -52 20 -10 5 -25 9 -33 9 -8 0 -15 4 -15 9 0 5 -8 12 -18 15 -21 7 -132
112 -132 125 0 5 41 51 90 101 50 50 90 96 90 101 0 5 7 9 15 9 8 0 33 18 56
40 23 22 51 40 61 40 10 0 18 5 18 10 0 6 11 10 25 10 14 0 25 -4 25 -10 0
-19 28 -10 33 10 7 28 34 36 56 16 30 -27 57 -16 29 12 -14 14 -18 10 54 47
32 16 69 39 82 52 14 13 27 23 29 23 10 0 155 151 181 188 33 47 42 49 25 6z
m-768 -422 c-5 -9 -33 -38 -62 -62 -38 -31 -48 -37 -34 -18 11 15 30 31 42 37
12 5 29 22 39 36 19 29 29 34 15 7z m-121 -111 c0 -12 -20 -25 -27 -18 -7 7 6
27 18 27 5 0 9 -4 9 -9z m53 -29 c-10 -11 -26 -30 -35 -42 -9 -12 -22 -19 -28
-15 -7 4 4 21 32 45 44 40 64 47 31 12z m869 -129 c18 -23 38 -42 43 -42 18
-2 105 -82 105 -98 0 -8 -14 -28 -31 -45 -27 -27 -34 -30 -74 -25 -34 5 -44 3
-49 -9 -3 -9 -3 -21 0 -26 16 -25 13 -97 -6 -160 -34 -112 -91 -141 -163 -81
-16 12 -32 23 -35 23 -4 0 -23 16 -43 35 -33 31 -42 34 -85 31 -42 -3 -54 1
-82 25 -18 16 -39 29 -46 29 -10 0 -15 18 -18 66 l-3 66 49 24 c27 13 53 21
57 18 5 -3 9 -1 9 4 0 5 19 18 42 28 24 10 54 31 68 45 14 14 39 33 56 42 17
9 55 43 85 76 l54 59 17 -21 c9 -12 32 -41 50 -64z m-958 32 c-4 -8 -10 -15
-15 -15 -5 0 -9 -7 -9 -15 0 -11 6 -12 23 -6 19 7 29 1 69 -40 25 -27 51 -49
56 -49 5 0 22 -11 37 -24 25 -22 57 -38 120 -62 24 -9 22 -8 62 -18 29 -7 31
-10 35 -59 3 -50 2 -52 -45 -97 -37 -34 -47 -50 -44 -68 4 -23 3 -23 -62 -21
-36 2 -77 10 -91 18 -38 23 -69 63 -70 91 -1 45 -10 50 -68 35 -69 -18 -206
-27 -237 -15 -35 13 -57 62 -49 107 8 40 40 75 91 100 19 9 66 47 105 84 68
66 104 87 92 54z m442 -569 c1 -71 -1 -138 -4 -149 -11 -43 -24 27 -30 156 -4
122 -4 129 14 125 17 -3 19 -14 20 -132z m140 -36 c37 0 44 -3 44 -19 0 -11
-5 -23 -11 -26 -17 -11 -83 -8 -87 4 -2 6 -7 9 -11 7 -4 -3 -13 -1 -21 4 -11
7 -12 11 0 25 7 9 20 13 27 10 8 -3 35 -5 59 -5z m-2109 -144 c12 -11 29 -27
37 -34 14 -11 30 -55 39 -112 6 -35 30 -90 39 -90 4 0 8 -11 8 -25 0 -14 5
-25 10 -25 6 0 10 -8 10 -18 0 -10 4 -22 8 -27 4 -6 14 -28 21 -50 8 -22 19
-43 25 -47 6 -4 11 -27 11 -52 0 -34 -5 -49 -22 -64 -13 -11 -23 -24 -23 -29
0 -18 -39 -46 -55 -39 -8 3 -18 14 -21 23 -10 31 -49 118 -55 123 -3 3 -17 41
-29 85 -31 107 -38 120 -92 175 -16 16 -28 32 -28 37 0 12 -50 33 -77 33 -26
0 -31 15 -8 24 8 3 15 13 16 23 0 22 44 115 50 109 3 -3 18 -1 35 3 38 11 74
3 101 -23z m2753 -194 c37 -19 59 -38 73 -65 24 -47 38 -108 28 -122 -5 -5
-11 -22 -15 -37 -3 -16 -13 -28 -22 -28 -8 0 -13 -4 -9 -9 11 -19 -55 -53
-115 -58 -51 -5 -64 -2 -105 22 -37 21 -52 39 -71 80 l-25 54 18 65 c9 36 21
66 25 66 5 0 13 11 18 24 16 44 124 49 200 8z"/>
<path d="M3257 4562 c-32 -10 -62 -23 -66 -31 -5 -7 -12 -12 -17 -12 -20 2
-75 -12 -80 -20 -3 -5 -10 -7 -15 -4 -5 4 -9 2 -9 -3 0 -6 7 -12 15 -16 8 -3
15 -11 15 -18 0 -10 -2 -10 -9 1 -5 7 -13 11 -19 7 -6 -3 -13 -2 -17 4 -10 17
-45 -8 -45 -33 0 -42 60 -73 87 -46 7 7 29 13 49 14 21 0 40 7 42 13 2 7 10
12 18 12 8 0 14 5 14 11 0 6 7 9 15 5 8 -3 15 -2 15 2 0 5 23 14 50 21 28 7
50 17 50 22 0 5 23 8 50 8 28 -1 50 -5 50 -9 0 -4 10 -7 23 -6 12 1 36 -4 54
-11 46 -18 56 -16 33 7 -11 11 -24 20 -30 20 -5 0 -10 4 -10 9 0 4 -23 20 -51
35 -66 34 -137 40 -212 18z"/>
<path d="M2375 4410 c-54 -12 -104 -43 -148 -88 -46 -49 -57 -62 -51 -62 4 0
-1 -9 -11 -20 -23 -25 -11 -26 23 -1 15 10 54 32 87 49 58 30 63 31 165 26 58
-2 112 -4 120 -4 8 0 38 1 67 1 43 0 54 5 67 24 17 25 22 64 9 66 -5 0 -16 2
-25 4 -10 2 -20 -1 -24 -6 -3 -5 -13 -9 -22 -8 -11 0 -12 3 -4 6 6 2 12 9 12
14 0 10 -221 10 -265 -1z"/>
<path d="M3249 4091 c-35 -35 -37 -70 -9 -117 27 -43 53 -50 100 -29 37 17 56
48 51 85 -12 85 -86 117 -142 61z m82 -33 c31 -58 5 -103 -39 -72 -24 16 -28
44 -12 75 14 25 37 24 51 -3z"/>
<path d="M2467 3966 c-23 -18 -36 -62 -30 -103 7 -43 59 -78 96 -64 70 27 90
108 40 156 -31 28 -77 33 -106 11z m67 -37 c-3 -5 0 -9 6 -9 14 0 9 -68 -6
-81 -36 -29 -72 54 -39 91 16 18 51 17 39 -1z"/>
<path d="M2920 3590 c-46 -11 -80 -54 -80 -102 0 -28 8 -45 35 -74 38 -40 40
-49 25 -89 -5 -14 -11 -39 -12 -56 -1 -17 -6 -33 -10 -35 -4 -3 -8 -9 -8 -15
0 -5 9 -4 19 3 11 7 19 14 19 17 -2 19 3 31 11 27 9 -6 21 26 21 58 0 10 8 25
18 32 14 11 15 16 4 33 -11 19 -10 21 18 21 16 0 30 -4 30 -9 0 -5 6 -16 13
-23 7 -7 24 -29 37 -48 13 -19 34 -44 46 -56 20 -19 22 -19 32 -4 8 13 6 21
-6 32 -10 8 -26 26 -36 40 -11 15 -23 25 -28 22 -4 -3 -3 7 2 21 6 15 7 31 4
36 -3 6 10 26 30 45 41 40 43 48 17 90 -26 43 -106 56 -201 34z m130 -35 c21
-11 30 -23 30 -41 0 -31 -24 -41 -46 -19 -13 12 -19 14 -28 4 -8 -8 -8 -13 2
-16 25 -9 11 -31 -24 -38 -42 -7 -52 -2 -34 20 10 13 9 15 -10 15 -13 0 -29
-8 -36 -17 -11 -16 -13 -16 -25 10 -11 24 -10 30 7 47 20 20 86 48 117 49 10
1 31 -6 47 -14z"/>
<path d="M3100 3391 c0 -17 107 -121 124 -121 13 0 1 19 -39 65 -52 58 -85 81
-85 56z"/>
<path d="M3285 3390 c-3 -5 12 -18 34 -29 22 -12 42 -25 46 -31 3 -5 15 -10
26 -10 22 0 23 -4 9 -30 -10 -18 -105 -51 -225 -78 -27 -6 -88 -20 -135 -31
-47 -11 -107 -23 -135 -27 -27 -3 -59 -8 -70 -10 -11 -2 -63 -7 -116 -10 -83
-6 -97 -5 -102 10 -7 18 1 46 14 46 4 0 6 8 2 18 -3 9 -3 14 2 10 4 -4 21 5
36 21 15 16 31 26 35 23 4 -4 4 -2 0 5 -8 15 -35 6 -59 -19 -10 -10 -22 -18
-26 -18 -5 0 -12 -11 -15 -25 -4 -15 -11 -22 -20 -19 -17 7 -30 -28 -21 -56 7
-22 60 -40 121 -40 53 0 397 55 416 66 4 3 29 9 56 14 26 4 72 15 104 24 31 8
68 17 82 20 15 3 42 14 60 25 53 33 57 111 6 111 -10 0 -38 11 -61 25 -49 28
-55 29 -64 15z"/>
<path d="M3180 3380 c0 -5 4 -10 9 -10 5 0 16 -6 23 -13 31 -30 78 -57 98 -57
22 0 22 0 -3 20 -14 11 -29 20 -34 20 -5 0 -20 11 -33 25 -23 25 -60 34 -60
15z"/>
<path d="M2864 3362 c-6 -4 -15 -18 -19 -32 -4 -14 -21 -45 -37 -69 -23 -34
-26 -46 -17 -57 16 -19 39 0 39 32 0 15 6 24 16 24 8 0 12 5 9 10 -3 6 -2 10
4 10 11 0 26 61 20 79 -2 6 -9 7 -15 3z"/>
<path d="M3646 3351 c-8 -12 41 -32 60 -24 15 6 15 7 -2 20 -20 15 -50 17 -58
4z"/>
<path d="M3622 3303 c2 -10 13 -19 26 -21 14 -2 20 -8 16 -15 -5 -8 -3 -8 6 0
11 10 10 16 -5 33 -22 25 -48 26 -43 3z"/>
<path d="M2760 3295 c-6 -8 -8 -20 -4 -26 4 -7 3 -9 -3 -6 -12 8 -26 -20 -17
-34 3 -5 -2 -9 -10 -9 -19 0 -21 -26 -3 -36 6 -4 9 -4 5 0 -3 4 2 16 13 27 11
11 17 24 14 30 -4 5 -1 8 6 7 7 -2 18 7 24 20 5 12 13 22 17 22 5 0 8 5 8 10
0 15 -36 12 -50 -5z"/>
<path d="M3370 2922 c0 -16 27 -45 44 -48 21 -3 20 19 -2 39 -20 18 -42 22
-42 9z"/>
<path d="M2573 2853 c-20 -7 -15 -19 7 -20 11 -1 20 4 20 13 0 14 -6 16 -27 7z"/>
<path d="M2626 2834 c-10 -25 -7 -34 10 -34 11 0 15 6 11 20 -3 10 0 21 7 24
6 2 4 5 -5 5 -9 1 -20 -6 -23 -15z"/>
<path d="M3074 2698 c-17 -27 -14 -48 6 -48 13 0 20 7 20 20 0 11 0 23 1 27 1
14 -19 14 -27 1z"/>
<path d="M3130 2681 c0 -23 4 -28 18 -24 14 3 18 11 14 29 -6 35 -32 31 -32
-5z"/>
<path d="M3924 4067 c-3 -8 -2 -37 1 -64 4 -26 9 -97 10 -158 2 -105 4 -110
24 -111 32 -2 36 -10 16 -41 -25 -38 -41 -53 -49 -46 -3 4 -6 -1 -6 -10 0 -9
11 -23 23 -32 22 -14 28 -14 60 0 45 19 49 39 7 33 -17 -3 -33 -1 -36 4 -3 4
1 8 8 8 22 1 50 68 38 91 -6 10 -17 19 -25 19 -8 0 -15 6 -15 13 -3 118 -11
200 -23 235 -14 41 -14 42 8 42 44 0 135 -119 135 -176 0 -8 9 -14 20 -14 17
0 19 5 13 33 -7 39 -48 112 -85 151 -33 34 -113 50 -124 23z"/>
</g>
</svg>
